<?xml version="1.0" encoding="utf-8"?>
<!-- Generator: Adobe Illustrator 12.0.0, SVG Export Plug-In . SVG Version: 6.00 Build 51448)  -->
<!DOCTYPE svg PUBLIC "-//W3C//DTD SVG 1.1//EN" "http://www.w3.org/Graphics/SVG/1.1/DTD/svg11.dtd" [
	<!ENTITY ns_svg "http://www.w3.org/2000/svg">
	<!ENTITY ns_xlink "http://www.w3.org/1999/xlink">
]>
<svg  version="1.1" id="huis" xmlns="&ns_svg;" xmlns:xlink="&ns_xlink;" width="2247.225" height="779.074"
	 viewBox="0 0 2247.225 779.074" overflow="visible" enable-background="new 0 0 2247.225 779.074" xml:space="preserve">
<line fill="none" stroke="#000000" stroke-width="3" x1="351.035" y1="231.023" x2="351.035" y2="102.01"/>
<line fill="none" stroke="#000000" stroke-width="3" x1="591.059" y1="102.01" x2="591.059" y2="231.023"/>
<line fill="none" stroke="#8C8C8C" stroke-width="3" x1="0" y1="453.045" x2="307.997" y2="453.045"/>
<polyline fill="none" stroke="#8C8C8C" stroke-width="3" points="591.274,165.017 849.085,165.017 849.085,396.039 915.091,396.039 
	915.091,677.06 726.024,677.226 726.024,633.76 "/>
<line fill="none" stroke="#C9C9C9" stroke-width="3" x1="1996.326" y1="610.307" x2="1996.326" y2="514.739"/>
<line fill="none" stroke="#000000" stroke-width="6" x1="640.497" y1="231.663" x2="497.83" y2="231.663"/>
<line fill="none" stroke="#000000" stroke-width="6" x1="446.997" y1="231.663" x2="417.997" y2="231.663"/>
<polyline fill="none" stroke="#000000" stroke-width="6" points="375.997,231.663 341.997,231.663 341.997,388.996 "/>
<polyline fill="none" stroke="#000000" stroke-width="6" points="341.997,318.996 443.497,318.996 443.497,334.996 506.997,334.996 
	"/>
<line fill="none" stroke="#000000" stroke-width="6" x1="307.997" y1="495.996" x2="307.997" y2="515.496"/>
<polyline fill="none" stroke="#000000" stroke-width="6" points="307.997,550.996 307.997,632.328 446.497,632.328 "/>
<line fill="none" stroke="#000000" stroke-width="6" x1="495.83" y1="632.328" x2="576.497" y2="632.328"/>
<polyline fill="none" stroke="#000000" stroke-width="6" points="624.497,632.328 749.164,632.328 749.164,588.996 "/>
<polyline fill="none" stroke="#000000" stroke-width="6" points="704.497,231.663 801.83,231.663 801.83,401.662 797.164,401.662 
	"/>
<line fill="none" stroke="#000000" stroke-width="6" x1="553.497" y1="231.663" x2="553.497" y2="333.996"/>
<line fill="none" stroke="#000000" stroke-width="6" x1="553.497" y1="372.996" x2="553.497" y2="379.496"/>
<polyline fill="none" stroke="#000000" stroke-width="6" points="443.997,403.996 443.997,379.496 571.497,379.496 571.497,397.996 
	627.497,397.996 627.497,378.996 685.497,378.996 "/>
<line fill="none" stroke="#000000" stroke-width="3" x1="628.997" y1="413.662" x2="628.997" y2="397.996"/>
<line fill="none" stroke="#000000" stroke-width="6" x1="341.771" y1="431.021" x2="341.771" y2="443.935"/>
<rect x="629.997" y="378.996" stroke="#000000" stroke-width="3" width="53.833" height="33.833"/>
<polygon stroke="#000000" stroke-width="3" points="569.997,429.828 629.83,413.662 629.83,397.996 569.997,397.996 "/>
<line fill="none" stroke="#C9C9C9" stroke-width="3" x1="749.164" y1="449.662" x2="749.164" y2="588.996"/>
<line fill="none" stroke="#C9C9C9" stroke-width="3" x1="624.497" y1="632.328" x2="576.497" y2="632.328"/>
<line fill="none" stroke="#C9C9C9" stroke-width="3" x1="495.83" y1="632.328" x2="446.497" y2="632.328"/>
<line fill="none" stroke="#C9C9C9" stroke-width="3" x1="307.997" y1="551.197" x2="307.997" y2="515.496"/>
<line fill="none" stroke="#C9C9C9" stroke-width="3" x1="307.997" y1="458.496" x2="307.997" y2="495.996"/>
<line fill="none" stroke="#C9C9C9" stroke-width="3" x1="704.497" y1="231.663" x2="640.497" y2="231.663"/>
<line fill="none" stroke="#C9C9C9" stroke-width="3" x1="497.83" y1="231.663" x2="446.997" y2="231.663"/>
<polyline fill="none" stroke="#000000" stroke-width="6" points="400.276,361.862 404.497,361.862 404.497,318.996 "/>
<line fill="none" stroke="#000000" stroke-width="6" x1="362.321" y1="361.862" x2="343.747" y2="361.862"/>
<polyline fill="none" stroke="#000000" stroke-width="6" points="755.831,401.662 749.164,401.662 749.164,449.662 "/>
<polyline fill="none" stroke="#000000" stroke-width="6" points="443.997,439.746 443.997,445.996 307.997,445.996 307.997,458.496 
	"/>
<polyline fill="none" stroke="#8C8C8C" stroke-width="6" points="0.274,102.42 1641.476,102.42 1641.476,3 2244.225,3 
	2244.225,776.074 0.274,776.074 "/>
<path fill="none" stroke="#8C8C8C" stroke-width="3" d="M958.275,704.066c0,0,893.19,0,926.55,0s35.199-14.535,35.199-14.535"/>
<path fill="none" stroke="#8C8C8C" stroke-width="3" d="M958.274,737.069c0,0,847.602,0,925.995,0s82.286-46.874,82.286-46.874"/>
<path fill="none" stroke="#8C8C8C" stroke-width="3" d="M2094.208,458.047c0,0-4.935-120.766-134.935-126.766
	s-154.917,106.822-154.917,106.822l66.875,19.363v-26.422h153.97v24.002"/>
<path fill="none" stroke="#8C8C8C" stroke-width="3" d="M2019.198,660.172v28.9h-148.012V494.488l-75.875-23.906
	c0,0-3.036,16.699,0.964,63.366s34.76,85.321,75.911,110.117"/>
<polyline fill="none" stroke="#000000" stroke-width="6" points="1996.274,515.43 1996.274,456.281 2175.272,456.281 
	2175.272,659.277 1996.274,659.277 1996.274,609.289 "/>
</svg>
