<?xml version="1.0" encoding="utf-8"?>
<!-- Generator: Adobe Illustrator 12.0.0, SVG Export Plug-In . SVG Version: 6.00 Build 51448)  -->
<!DOCTYPE svg PUBLIC "-//W3C//DTD SVG 1.1//EN" "http://www.w3.org/Graphics/SVG/1.1/DTD/svg11.dtd" [
	<!ENTITY ns_svg "http://www.w3.org/2000/svg">
	<!ENTITY ns_xlink "http://www.w3.org/1999/xlink">
]>
<svg  version="1.1" id="Laag_1" xmlns="&ns_svg;" xmlns:xlink="&ns_xlink;" width="210.216" height="210.462"
	 viewBox="0 0 210.216 210.462" overflow="visible" enable-background="new 0 0 210.216 210.462" xml:space="preserve">
<g opacity="0.4">
	<g>
		<path fill="none" stroke="#BE0C1D" d="M86.485,209.962c68.111,0,123.23-55.112,123.23-123.244"/>
	</g>
	<g>
		<path fill="none" stroke="#BE0C1D" d="M71.717,174.655c56.76,0,102.692-45.927,102.692-102.703"/>
	</g>
	<g>
		<path fill="none" stroke="#BE0C1D" d="M59.41,145.233c47.299,0,85.577-38.272,85.577-85.586"/>
	</g>
	<g>
		<path fill="none" stroke="#BE0C1D" d="M49.154,120.715c39.417,0,71.315-31.894,71.315-71.321"/>
	</g>
	<g>
		<path fill="none" stroke="#BE0C1D" d="M40.607,100.283c32.847,0,59.429-26.578,59.429-59.435"/>
	</g>
	<g>
		<path fill="none" stroke="#BE0C1D" d="M33.485,83.257c27.373,0,49.524-22.148,49.524-49.529"/>
	</g>
	<g>
		<path fill="none" stroke="#BE0C1D" d="M27.55,69.068c22.811,0,41.27-18.457,41.27-41.274"/>
	</g>
	<g>
		<path fill="none" stroke="#BE0C1D" d="M22.604,57.244c19.009,0,34.392-15.381,34.392-34.396"/>
	</g>
	<g>
		<path fill="none" stroke="#BE0C1D" d="M18.483,47.391c15.841,0,28.66-12.817,28.66-28.663"/>
	</g>
	<g>
		<path fill="none" stroke="#BE0C1D" d="M15.048,39.18c13.201,0,23.883-10.682,23.883-23.886"/>
	</g>
	<g>
		<path fill="none" stroke="#BE0C1D" d="M12.186,32.337c11,0,19.902-8.901,19.902-19.904"/>
	</g>
	<g>
		<path fill="none" stroke="#BE0C1D" d="M9.801,26.635c9.167,0,16.585-7.418,16.585-16.587"/>
	</g>
	<g>
		<path fill="none" stroke="#BE0C1D" d="M7.813,21.883c7.639,0,13.821-6.182,13.821-13.822"/>
	</g>
	<g>
		<path fill="none" stroke="#BE0C1D" d="M6.157,17.923c6.366,0,11.518-5.151,11.518-11.519"/>
	</g>
	<g>
		<path fill="none" stroke="#BE0C1D" d="M4.776,14.623c5.305,0,9.598-4.293,9.598-9.599"/>
	</g>
	<g>
		<path fill="none" stroke="#BE0C1D" d="M3.626,11.873c4.421,0,7.999-3.577,7.999-7.999"/>
	</g>
</g>
<circle fill="#BE0C1D" cx="3.292" cy="3.292" r="3.292"/>
</svg>
